<mxfile host="app.diagrams.net" modified="2023-11-11T13:42:27.802Z" agent="Mozilla/5.0 (Windows NT 10.0; Win64; x64) AppleWebKit/537.36 (KHTML, like Gecko) Chrome/119.0.0.0 Safari/537.36 Edg/119.0.0.0" etag="-idK9-RJtG9sGL1hZXLb" version="22.1.0" type="github">
  <diagram name="Page-1" id="sB_5FrgTdAXcXzPgjGo9">
    <mxGraphModel dx="1076" dy="601" grid="1" gridSize="10" guides="1" tooltips="1" connect="1" arrows="1" fold="1" page="1" pageScale="1" pageWidth="850" pageHeight="1100" math="0" shadow="0">
      <root>
        <mxCell id="0" />
        <mxCell id="1" parent="0" />
        <mxCell id="qp7jfoKEqku8azW3tSed-1" value="Nhập a, b" style="shape=parallelogram;perimeter=parallelogramPerimeter;whiteSpace=wrap;html=1;fixedSize=1;fillColor=#dae8fc;strokeColor=#6c8ebf;fontSize=17;" vertex="1" parent="1">
          <mxGeometry x="120" y="110" width="120" height="60" as="geometry" />
        </mxCell>
        <mxCell id="qp7jfoKEqku8azW3tSed-2" value="" style="endArrow=classic;html=1;rounded=0;exitX=0.5;exitY=1;exitDx=0;exitDy=0;" edge="1" parent="1" source="qp7jfoKEqku8azW3tSed-1" target="qp7jfoKEqku8azW3tSed-3">
          <mxGeometry width="50" height="50" relative="1" as="geometry">
            <mxPoint x="400" y="400" as="sourcePoint" />
            <mxPoint x="450" y="350" as="targetPoint" />
          </mxGeometry>
        </mxCell>
        <mxCell id="qp7jfoKEqku8azW3tSed-3" value="Nếu chia hết (là ước của nhau)" style="rhombus;whiteSpace=wrap;html=1;fillColor=#f8cecc;strokeColor=#b85450;fontSize=15;" vertex="1" parent="1">
          <mxGeometry x="50" y="220" width="260" height="80" as="geometry" />
        </mxCell>
        <mxCell id="qp7jfoKEqku8azW3tSed-4" value="" style="endArrow=classic;html=1;rounded=0;exitX=1;exitY=0.5;exitDx=0;exitDy=0;" edge="1" parent="1" source="qp7jfoKEqku8azW3tSed-3">
          <mxGeometry width="50" height="50" relative="1" as="geometry">
            <mxPoint x="400" y="400" as="sourcePoint" />
            <mxPoint x="410" y="260" as="targetPoint" />
          </mxGeometry>
        </mxCell>
        <mxCell id="qp7jfoKEqku8azW3tSed-5" value="In ra màn hình thông báo là ước của nhau" style="rounded=0;whiteSpace=wrap;html=1;fontSize=15;" vertex="1" parent="1">
          <mxGeometry x="410" y="225" width="190" height="70" as="geometry" />
        </mxCell>
        <mxCell id="qp7jfoKEqku8azW3tSed-8" value="" style="endArrow=classic;html=1;rounded=0;" edge="1" parent="1">
          <mxGeometry width="50" height="50" relative="1" as="geometry">
            <mxPoint x="180" y="300" as="sourcePoint" />
            <mxPoint x="180" y="380" as="targetPoint" />
          </mxGeometry>
        </mxCell>
        <mxCell id="qp7jfoKEqku8azW3tSed-9" value="Nếu không chia hết &lt;br&gt;(không phải là ước của nhau)" style="rhombus;whiteSpace=wrap;html=1;fillColor=#f8cecc;strokeColor=#b85450;fontSize=13;" vertex="1" parent="1">
          <mxGeometry x="50" y="380" width="260" height="80" as="geometry" />
        </mxCell>
        <mxCell id="qp7jfoKEqku8azW3tSed-10" value="" style="endArrow=classic;html=1;rounded=0;exitX=1;exitY=0.5;exitDx=0;exitDy=0;fontSize=15;" edge="1" parent="1">
          <mxGeometry width="50" height="50" relative="1" as="geometry">
            <mxPoint x="310" y="419.58000000000004" as="sourcePoint" />
            <mxPoint x="410" y="419.58000000000004" as="targetPoint" />
          </mxGeometry>
        </mxCell>
        <mxCell id="qp7jfoKEqku8azW3tSed-11" value="In ra màn hình thông báo không phải là ước của nhau" style="rounded=0;whiteSpace=wrap;html=1;fontSize=15;" vertex="1" parent="1">
          <mxGeometry x="410" y="385" width="190" height="70" as="geometry" />
        </mxCell>
        <mxCell id="qp7jfoKEqku8azW3tSed-12" value="Kết thúc" style="ellipse;whiteSpace=wrap;html=1;fontSize=21;" vertex="1" parent="1">
          <mxGeometry x="690" y="380" width="120" height="80" as="geometry" />
        </mxCell>
        <mxCell id="qp7jfoKEqku8azW3tSed-13" value="" style="endArrow=classic;html=1;rounded=0;exitX=1;exitY=0.5;exitDx=0;exitDy=0;entryX=0.5;entryY=0;entryDx=0;entryDy=0;" edge="1" parent="1" source="qp7jfoKEqku8azW3tSed-5" target="qp7jfoKEqku8azW3tSed-12">
          <mxGeometry width="50" height="50" relative="1" as="geometry">
            <mxPoint x="690" y="260" as="sourcePoint" />
            <mxPoint x="410" y="350" as="targetPoint" />
          </mxGeometry>
        </mxCell>
        <mxCell id="qp7jfoKEqku8azW3tSed-14" value="" style="endArrow=classic;html=1;rounded=0;exitX=1;exitY=0.5;exitDx=0;exitDy=0;" edge="1" parent="1" source="qp7jfoKEqku8azW3tSed-11">
          <mxGeometry width="50" height="50" relative="1" as="geometry">
            <mxPoint x="700" y="270" as="sourcePoint" />
            <mxPoint x="690" y="420" as="targetPoint" />
          </mxGeometry>
        </mxCell>
      </root>
    </mxGraphModel>
  </diagram>
</mxfile>
